<?xml version="1.0" encoding="UTF-8"?>
<svg width="24px" height="24px" viewBox="0 0 24 24" version="1.1" xmlns="http://www.w3.org/2000/svg" xmlns:xlink="http://www.w3.org/1999/xlink">
    <!-- Generator: Sketch 55.2 (78181) - https://sketchapp.com -->
    <title>CreditsIcon</title>
    <desc>Created with Sketch.</desc>
    <g id="CreditsIcon" stroke="none" stroke-width="1" fill="none" fill-rule="evenodd">
        <path d="M2,5 L6,5 L6,7 L2,7 L2,5 Z M8,5 L17,5 L17,7 L8,7 L8,5 Z M2,9 L6,9 L6,11 L2,11 L2,9 Z M8,9 L22,9 L22,11 L8,11 L8,9 Z M2,13 L6,13 L6,15 L2,15 L2,13 Z M8,13 L17,13 L17,15 L8,15 L8,13 Z M2,17 L6,17 L6,19 L2,19 L2,17 Z M8,17 L22,17 L22,19 L8,19 L8,17 Z" id="Combined-Shape" fill="#000000"></path>
    </g>
</svg>