<?xml version="1.0" encoding="UTF-8"?>
<svg width="447px" height="448px" viewBox="0 0 447 448" version="1.1" xmlns="http://www.w3.org/2000/svg" xmlns:xlink="http://www.w3.org/1999/xlink">
    <!-- Generator: Sketch 53.2 (72643) - https://sketchapp.com -->
    <title>background</title>
    <desc>Created with Sketch.</desc>
    <g id="Page-1" stroke="none" stroke-width="1" fill="none" fill-rule="evenodd">
        <g id="background" transform="translate(-1.000000, 0.000000)" fill-rule="nonzero" stroke="#00A39B" stroke-width="0.02">
            <path d="M235.58,210.13 L218.41,207.13 C216.542591,206.798822 214.620148,207.224208 213.066787,208.31231 C211.513427,209.400413 210.456796,211.061819 210.13,212.93 L207.13,230.1 C206.451933,233.98658 209.045641,237.689322 212.93,238.38 L230.1,241.38 C230.512946,241.45088 230.931022,241.487671 231.35,241.49 C234.803238,241.465849 237.7472,238.980304 238.35,235.58 L241.35,218.41 C242.028067,214.52342 239.434359,210.820678 235.55,210.13 L235.58,210.13 Z M241.32,218.4 L238.32,235.57 C237.634577,239.425571 233.956849,241.99819 230.1,241.32 L212.93,238.32 C211.077041,237.993283 209.429938,236.943429 208.351448,235.401657 C207.272958,233.859886 206.851538,231.95265 207.18,230.1 L210.18,212.93 C210.778126,209.534482 213.732214,207.061488 217.18,207.07 C217.599198,207.067304 218.017716,207.104134 218.43,207.18 L235.6,210.18 C237.452959,210.506717 239.100062,211.556571 240.178552,213.098343 C241.257042,214.640114 241.678462,216.54735 241.35,218.4 L241.32,218.4 Z" id="Shape"></path>
            <path d="M237.86,210 L219.55,205.09 C215.40906,203.98896 211.157334,206.443427 210.04,210.58 L205.12,228.89 C204.01896,233.03094 206.473427,237.282666 210.61,238.4 L228.92,243.31 C229.572184,243.486119 230.244462,243.576876 230.92,243.58 C234.424802,243.569697 237.488853,241.21431 238.4,237.83 L243.32,219.52 C244.423605,215.385661 241.985796,211.135123 237.86,210 L237.86,210 Z M243.29,219.5 L238.38,237.81 C237.277084,241.920909 233.051578,244.360423 228.94,243.26 L210.63,238.35 C206.519091,237.247084 204.079577,233.021578 205.18,228.91 L210.09,210.6 C210.612558,208.621374 211.903196,206.933135 213.675504,205.909928 C215.447812,204.886721 217.555197,204.613177 219.53,205.15 L237.84,210.06 C239.820887,210.589302 241.509353,211.885837 242.53208,213.662942 C243.554807,215.440048 243.827548,217.551335 243.29,219.53 L243.29,219.5 Z" id="Shape"></path>
            <path d="M240.33,210.15 L221,203.1 C216.632201,201.511659 211.800971,203.744205 210.18,208.1 L203.1,227.5 C201.511659,231.867799 203.744205,236.699029 208.1,238.32 L227.46,245.37 C228.386532,245.706072 229.364402,245.878638 230.35,245.88 C233.896008,245.877154 237.063027,243.66064 238.28,240.33 L245.37,221 C246.964246,216.631955 244.729809,211.796633 240.37,210.18 L240.33,210.15 Z M245.33,220.95 L238.27,240.31 C236.683614,244.655261 231.876403,246.893255 227.53,245.31 L208.17,238.25 C203.828768,236.659226 201.592697,231.856144 203.17,227.51 L210.23,208.15 C211.434743,204.840571 214.578113,202.635819 218.1,202.63 C219.079005,202.632259 220.050153,202.804832 220.97,203.14 L240.33,210.2 C244.675261,211.786386 246.913255,216.593597 245.33,220.94 L245.33,220.95 Z" id="Shape"></path>
            <path d="M243,210.51 L222.7,201 C220.496096,199.970636 217.973509,199.859091 215.68735,200.68991 C213.401192,201.520729 211.538797,203.225832 210.51,205.43 L201,225.77 C199.963383,227.983502 199.852296,230.519009 200.691355,232.814689 C201.530414,235.110369 203.250332,236.976653 205.47,238 L225.77,247.47 C226.982173,248.034502 228.302831,248.327982 229.64,248.33 C230.71166,248.331767 231.775021,248.142123 232.78,247.77 C235.090084,246.945715 236.971359,245.226619 238,243 L247.47,222.7 C248.496731,220.491159 248.602463,217.96458 247.76387,215.677678 C246.925277,213.390777 245.211272,211.531485 243,210.51 L243,210.51 Z M247.38,222.68 L237.91,243 C235.776844,247.560157 230.354897,249.532995 225.79,247.41 L205.5,237.9 C200.941129,235.770954 198.96777,230.352048 201.09,225.79 L210.57,205.5 C211.580977,203.303213 213.43347,201.605696 215.71,200.79 C217.988068,199.94037 220.512977,200.04858 222.71,201.09 L243,210.56 C247.560157,212.693156 249.532995,218.115103 247.41,222.68 L247.38,222.68 Z" id="Shape"></path>
            <path d="M245.85,211.16 L224.77,199 C220.003608,196.269247 213.926859,197.894476 211.16,202.64 L199,223.7 C196.269247,228.466392 197.894476,234.543141 202.64,237.31 L223.72,249.49 C225.238143,250.372649 226.963925,250.835158 228.72,250.83 C229.594486,250.8304 230.465247,250.716092 231.31,250.49 C233.864256,249.811031 236.041966,248.140853 237.36,245.85 L249.54,224.77 C252.262322,219.990561 250.613682,213.909802 245.85,211.16 L245.85,211.16 Z M249.44,224.74 L237.26,245.82 C234.521129,250.552841 228.466336,252.172823 223.73,249.44 L202.65,237.26 C200.365852,235.955389 198.69625,233.793776 198.01112,231.254103 C197.32599,228.71443 197.681903,226.006392 199,223.73 L211.18,202.65 C212.48618,200.373502 214.645282,198.710994 217.18,198.03 C218.022353,197.80899 218.88915,197.694761 219.76,197.69 C221.496426,197.690201 223.20149,198.152709 224.7,199.03 L245.78,211.2 C250.528628,213.929074 252.167008,219.990186 249.44,224.74 L249.44,224.74 Z" id="Shape"></path>
            <path d="M248.88,212.12 L227.2,196.94 C224.849419,195.289946 221.939271,194.642086 219.110696,195.13915 C216.282121,195.636214 213.7672,197.237419 212.12,199.59 L196.94,221.26 C193.514376,226.160894 194.699522,232.909521 199.59,236.35 L221.26,251.53 C223.070948,252.820124 225.236529,253.518698 227.46,253.53 C228.096738,253.530967 228.732391,253.477438 229.36,253.37 C232.191021,252.873362 234.708907,251.272706 236.36,248.92 L251.54,227.24 C253.199091,224.884435 253.851168,221.964863 253.351958,219.127248 C252.852748,216.289633 251.243405,213.767904 248.88,212.12 Z M251.48,227.12 L236.3,248.84 C234.662607,251.181318 232.161272,252.775302 229.347454,253.270534 C226.533636,253.765766 223.638384,253.121581 221.3,251.48 L199.63,236.3 C197.288682,234.662607 195.694698,232.161272 195.199466,229.347454 C194.704234,226.533636 195.348419,223.638384 196.99,221.3 L212.17,199.62 C213.817348,197.268782 216.338947,195.676573 219.17,195.2 C219.773389,195.082641 220.385505,195.015743 221,195 C223.205217,194.999697 225.356668,195.680757 227.16,196.95 L248.83,212.14 C251.179284,213.777965 252.779435,216.284177 253.276715,219.104598 C253.773994,221.925019 253.127446,224.827356 251.48,227.17 L251.48,227.12 Z" id="Shape"></path>
            <path d="M252.06,213.46 L230,195 C225.022396,190.829548 217.607606,191.478398 213.43,196.45 L194.93,218.45 C190.780297,223.432525 191.442077,230.832827 196.41,235 L218.41,253.5 C220.523989,255.277695 223.197909,256.251639 225.96,256.25 C226.31,256.25 226.65,256.25 226.96,256.25 C230.076951,255.993365 232.959821,254.494273 234.96,252.09 L253.46,230.09 C255.487508,227.702451 256.47971,224.605215 256.216948,221.483976 C255.954186,218.362737 254.458135,215.474975 252.06,213.46 L252.06,213.46 Z M253.47,230 L235,252 C230.836058,256.946463 223.452852,257.586341 218.5,253.43 L196.5,234.94 C191.555733,230.77624 190.911751,223.397289 195.06,218.44 L213.56,196.44 C215.552169,194.05695 218.414816,192.569813 221.51,192.31 C221.86,192.31 222.2,192.26 222.51,192.26 C225.251123,192.264536 227.903019,193.234655 230,195 L252,213.5 C256.944267,217.66376 257.588249,225.042711 253.44,230 L253.47,230 Z" id="Shape"></path>
            <path d="M233.29,193.09 C230.908423,190.692345 227.669445,189.342771 224.29,189.34 L224.29,189.34 C220.912656,189.343431 217.675099,190.688815 215.29,193.08 L193.18,215.18 C188.194743,220.179619 188.194743,228.270381 193.18,233.27 L215.28,255.38 C217.661577,257.777655 220.900555,259.127229 224.28,259.13 L224.28,259.13 C227.657344,259.126569 230.894901,257.781185 233.28,255.39 L255.39,233.29 C260.38076,228.292657 260.38076,220.197343 255.39,215.2 L233.29,193.09 Z M255.34,233.25 L233.23,255.35 C230.846003,257.740405 227.606001,259.079606 224.23,259.07 L224.23,259.07 C220.851894,259.080306 217.61045,257.736907 215.23,255.34 L193.13,233.23 C188.171595,228.254408 188.171595,220.205592 193.13,215.23 L215.24,193.13 C220.215592,188.171595 228.264408,188.171595 233.24,193.13 L255.34,215.24 C260.298405,220.215592 260.298405,228.264408 255.34,233.24 L255.34,233.25 Z" id="Shape"></path>
            <path d="M237,191.37 C234.632897,188.543472 231.23918,186.773975 227.566531,186.451352 C223.893882,186.128729 220.243639,187.279451 217.42,189.65 L191.42,211.48 C188.593472,213.847103 186.823975,217.24082 186.501352,220.913469 C186.178729,224.586118 187.329451,228.236361 189.7,231.06 L211.53,257.06 C216.467829,262.930447 225.224317,263.699658 231.11,258.78 L257.11,236.94 C259.936528,234.572897 261.706025,231.17918 262.028648,227.506531 C262.351271,223.833882 261.200549,220.183639 258.83,217.36 L237,191.37 Z M262,227.55 C261.690809,231.207848 259.929728,234.589557 257.11,236.94 L231.11,258.78 C225.247927,263.67638 216.530406,262.91192 211.61,257.07 L189.77,231.07 C184.86227,225.211495 185.627524,216.484917 191.48,211.57 L217.48,189.73 C219.961464,187.636739 223.103555,186.489008 226.35,186.49 C226.76,186.49 227.17,186.49 227.59,186.55 C231.247848,186.859191 234.629557,188.620272 236.98,191.44 L258.82,217.44 C261.184392,220.251863 262.32903,223.890948 262,227.55 L262,227.55 Z" id="Shape"></path>
            <path d="M241.15,189.85 C236.368832,183.036986 226.976155,181.377613 220.15,186.14 L189.89,207.32 C183.068581,212.094815 181.403843,221.492528 186.17,228.32 L207.35,258.58 C209.635607,261.871001 213.142895,264.110767 217.09,264.8 C217.96871,264.950641 218.858474,265.027576 219.75,265.03 C222.83915,265.030356 225.853075,264.076936 228.38,262.3 L258.65,241.12 C265.463014,236.338832 267.122387,226.946155 262.36,220.12 L241.15,189.85 Z M264.77,231.39 C264.083169,235.324946 261.855227,238.823426 258.58,241.11 L228.32,262.28 C225.046118,264.578872 220.992118,265.480724 217.052411,264.786585 C213.112705,264.092447 209.61105,261.85936 207.32,258.58 L186.15,228.32 C183.848476,225.046981 182.945033,220.992202 183.639314,217.051689 C184.333595,213.111176 186.568443,209.609334 189.85,207.32 L220.11,186.15 C223.383019,183.848476 227.437798,182.945033 231.378311,183.639314 C235.318824,184.333595 238.820666,186.568443 241.11,189.85 L262.28,220.11 C264.591988,223.382665 265.489425,227.448166 264.77,231.39 L264.77,231.39 Z" id="Shape"></path>
            <path d="M245.81,188.61 C243.632804,184.841026 240.047433,182.091421 235.842772,180.966177 C231.63811,179.840933 227.15865,180.432242 223.39,182.61 L188.61,202.67 C184.841026,204.847196 182.091421,208.432567 180.966177,212.637228 C179.840933,216.84189 180.432242,221.32135 182.61,225.09 L202.67,259.87 C204.841504,263.645084 208.426976,266.39999 212.634005,267.525868 C216.841034,268.651745 221.323229,268.055894 225.09,265.87 L259.87,245.81 C263.638974,243.632804 266.388579,240.047433 267.513823,235.842772 C268.639067,231.63811 268.047758,227.15865 265.87,223.39 L245.81,188.61 Z M267.45,235.83 C266.33884,240.025193 263.594777,243.601117 259.83,245.76 L225.05,265.82 C217.22386,270.330142 207.22341,267.644256 202.71,259.82 L182.65,225.04 C178.139858,217.21386 180.825744,207.21341 188.65,202.7 L223.43,182.63 C225.903829,181.197585 228.711392,180.442233 231.57,180.44 C233.011464,180.442707 234.446585,180.63092 235.84,181 C240.035921,182.115594 243.611417,184.862929 245.77,188.63 L265.83,223.41 C268.015506,227.164624 268.599303,231.640401 267.45,235.83 Z" id="Shape"></path>
            <path d="M251,187.7 C246.828333,178.777679 236.220922,174.916778 227.29,179.07 L187.71,197.5 C183.419388,199.49759 180.098382,203.118246 178.477957,207.565036 C176.857533,212.011826 177.070506,216.920275 179.07,221.21 L197.5,260.76 C199.491382,265.056199 203.111673,268.382497 207.560766,270.003761 C212.009859,271.625025 216.921433,271.407766 221.21,269.4 L260.76,251 C269.690545,246.836095 273.55786,236.223362 269.4,227.29 L251,187.7 Z M270,240.88 C268.38882,245.306355 265.07698,248.906181 260.8,250.88 L221.24,269.31 C216.964846,271.30275 212.073063,271.515101 207.641308,269.900314 C203.209552,268.285527 199.601045,264.975948 197.61,260.7 L179.18,221.14 C177.18725,216.864846 176.974899,211.973063 178.589686,207.541308 C180.204473,203.109552 183.514052,199.501045 187.79,197.51 L227.35,179.08 C231.625154,177.08725 236.516937,176.874899 240.948692,178.489686 C245.380448,180.104473 248.988955,183.414052 250.98,187.69 L269.41,227.25 C271.400509,231.540072 271.591365,236.448315 269.94,240.88 L270,240.88 Z" id="Shape"></path>
            <path d="M256.64,187.21 C252.97782,177.147859 241.852597,171.959073 231.79,175.62 L187.21,191.83 C177.147859,195.49218 171.959073,206.617403 175.62,216.68 L191.83,261.25 C193.577766,266.090569 197.181841,270.035478 201.845214,272.212344 C206.508587,274.38921 211.847032,274.618677 216.68,272.85 L261.26,256.64 C271.322141,252.97782 276.510927,241.852597 272.85,231.79 L256.64,187.21 Z M272.15,246.59 C269.990259,251.243295 266.06333,254.84268 261.24,256.59 L216.66,272.8 C206.625118,276.447599 195.532819,271.272983 191.88,261.24 L175.67,216.66 C173.915542,211.841087 174.147937,206.522493 176.316028,201.874975 C178.48412,197.227457 182.410186,193.63198 187.23,191.88 L231.81,175.67 C236.626568,173.909283 241.946595,174.143249 246.59,176.32 C251.245301,178.476999 254.845586,182.40491 256.59,187.23 L272.8,231.81 C274.561835,236.626395 274.32785,241.946866 272.15,246.59 Z" id="Shape"></path>
            <path d="M262.83,187.22 C261.38405,181.816206 257.849543,177.208715 253.00484,174.412179 C248.160136,171.615643 242.402549,170.859404 237,172.31 L187.19,185.64 C181.789945,187.081587 177.18441,190.610628 174.387807,195.44982 C171.591204,200.289012 170.83293,206.041412 172.28,211.44 L185.61,261.25 C188.076788,270.480382 196.445695,276.895586 206,276.88 C207.850133,276.878231 209.692202,276.636207 211.48,276.16 L261.29,262.83 C272.527149,259.801081 279.18352,248.238603 276.16,237 L262.83,187.22 Z M274,253 C271.223356,257.833172 266.628698,261.354784 261.24,262.78 L211.43,276.1 C206.047331,277.544267 200.311316,276.789704 195.48529,274.0025 C190.659263,271.215296 187.139063,266.624063 185.7,261.24 L172.37,211.43 C170.922706,206.045945 171.675774,200.307353 174.463227,195.479019 C177.25068,190.650685 181.843708,187.128946 187.23,185.69 L237,172.36 C238.784387,171.883763 240.623156,171.641731 242.47,171.64 C251.972822,171.654111 260.2819,178.047918 262.73,187.23 L276.1,237 C277.577098,242.398933 276.820289,248.165099 274,253 L274,253 Z" id="Shape"></path>
            <path d="M269.53,187.81 C268.478734,181.825878 265.092479,176.504813 260.116696,173.018201 C255.140913,169.531589 248.983511,168.16526 243,169.22 L187.81,178.94 C181.827934,179.991372 176.508579,183.376159 173.022237,188.349681 C169.535896,193.323203 168.168181,199.478013 169.22,205.46 L178.94,260.66 C179.976193,266.651144 183.359403,271.981469 188.339614,275.469306 C193.319824,278.957143 199.485577,280.314331 205.47,279.24 L260.66,269.53 C266.644122,268.478734 271.965187,265.092479 275.451799,260.116696 C278.938411,255.140913 280.30474,248.983511 279.25,243 L269.53,187.81 Z M275.4,260.08 C271.938368,265.058105 266.625319,268.440446 260.65,269.47 L205.46,279.19 C193.034134,281.37461 181.189154,273.075066 179,260.65 L169.28,205.45 C167.101526,193.027647 175.399552,181.189309 187.82,179 L243,169.28 C255.425866,167.09539 267.270846,175.394934 269.46,187.82 L279.19,243 C280.260676,248.971061 278.895753,255.122216 275.4,260.08 Z" id="Shape"></path>
            <path d="M276.73,189.08 C276.446723,185.764579 275.497811,182.540321 273.94,179.6 C269.268712,170.747211 259.74027,165.563139 249.77,166.45 L189.08,171.74 C182.495416,172.311508 176.408824,175.479485 172.163251,180.544905 C167.917679,185.610325 165.862069,192.156862 166.45,198.74 L171.74,259.42 C172.854189,272.270638 183.601165,282.140841 196.5,282.16 C197.23,282.16 197.96,282.16 198.7,282.06 L259.39,276.77 C262.705421,276.486723 265.929679,275.537811 268.87,273.98 C274.582335,270.937241 278.88612,265.790631 280.87,259.63 C281.898013,256.464922 282.275575,253.124689 281.98,249.81 L276.73,189.08 Z M276.24,267.9 C272.019543,272.961125 265.946935,276.11989 259.38,276.67 L198.69,282 C197.96,282.07 197.23,282.1 196.5,282.1 C183.636052,282.076223 172.918584,272.235245 171.8,259.42 L166.51,198.73 C165.320568,185.069471 175.429596,173.030864 189.09,171.84 L249.78,166.54 C250.51,166.48 251.25,166.45 251.98,166.45 C264.840109,166.478948 275.551759,176.318569 276.67,189.13 L282,249.77 C282.584301,256.340721 280.509484,262.871353 276.24,267.9 L276.24,267.9 Z" id="Shape"></path>
            <path d="M276.49,172 C274.021144,169.533852 271.101591,167.564851 267.89,166.2 C264.558765,164.78971 260.977461,164.065287 257.36,164.07 L191.15,164.07 L191.15,164.07 C183.967623,164.069179 177.079118,166.921703 172,172 C166.919142,177.069228 164.065679,183.952802 164.07,191.13 L164.07,257.34 C164.054064,264.511235 166.891662,271.394215 171.956872,276.470682 C177.022083,281.547148 183.898747,284.400018 191.07,284.4 L257.28,284.4 L257.28,284.4 C264.454322,284.409621 271.337491,281.563523 276.41,276.49 C281.490858,271.420772 284.344321,264.537198 284.34,257.36 L284.34,191.15 C284.370859,183.97737 281.546443,177.087235 276.49,172 L276.49,172 Z M284.33,257.35 C284.33,272.261688 272.241688,284.35 257.33,284.35 L257.33,284.35 L191.12,284.35 C176.208312,284.35 164.12,272.261688 164.12,257.35 L164.12,191.14 C164.12,176.228312 176.208312,164.14 191.12,164.14 L191.12,164.14 L257.33,164.14 C272.241688,164.14 284.33,176.228312 284.33,191.14 L284.33,257.35 Z" id="Shape"></path>
            <path d="M285.76,172.64 C280.74137,166.651929 273.544309,162.909458 265.76,162.24 L194.11,156 C186.340023,155.314909 178.61627,157.745594 172.63899,162.756982 C166.661709,167.768369 162.920887,174.949654 162.24,182.72 L156,254.36 C155.314909,262.129977 157.745594,269.85373 162.756982,275.83101 C167.768369,281.808291 174.949654,285.549113 182.72,286.23 L254.41,292.52 C255.29,292.6 256.16,292.63 257.03,292.63 C272.256736,292.6106 284.948967,280.968461 286.28,265.8 L292.57,194.1 C293.262444,186.332083 290.829518,178.608622 285.81,172.64 L285.76,172.64 Z M292.46,194.1 L286.17,265.8 C285.491678,273.553609 281.759319,280.719663 275.794866,285.72005 C269.830413,290.720437 262.123015,293.145072 254.37,292.46 L182.67,286.17 C174.91146,285.501918 167.738025,281.77278 162.733949,275.806165 C157.729873,269.839549 155.306848,262.12634 156,254.37 L162.29,182.67 C163.602281,167.523979 176.277237,155.8955 191.48,155.89 C192.34,155.89 193.22,155.89 194.09,156 L265.79,162.3 C273.546741,162.970583 280.717642,166.700794 285.719604,172.667125 C290.721565,178.633455 293.143239,186.345251 292.45,194.1 L292.46,194.1 Z" id="Shape"></path>
            <path d="M295.74,174.2 C290.888136,167.24975 283.468178,162.517817 275.12,161.05 L198.12,147.44 C189.777615,145.969373 181.192708,147.872979 174.253862,152.732047 C167.315015,157.591115 162.590624,165.007614 161.12,173.35 L147.51,250.35 C146.039373,258.692385 147.942979,267.277292 152.802047,274.216138 C157.661115,281.154985 165.077614,285.879376 173.42,287.35 L250.42,300.96 C258.766855,302.44742 267.362208,300.54334 274.3,295.67 C281.254101,290.817353 285.986769,283.392644 287.45,275.04 L301.06,198.04 C302.54742,189.693145 300.64334,181.097792 295.77,174.16 L295.74,174.2 Z M301,198.07 L287.39,275.07 C285.925064,283.412049 281.199789,290.827867 274.257616,295.679883 C267.315443,300.531899 258.727432,302.420988 250.39,300.93 L173.39,287.32 C165.049218,285.852581 157.635075,281.126733 152.783528,274.185231 C147.931981,267.243729 146.041778,258.657095 147.53,250.32 L161.14,173.32 C161.867132,169.118088 163.438802,165.107266 165.76,161.53 C170.285074,154.562547 177.342516,149.628076 185.44,147.77 C187.758121,147.231589 190.130174,146.959827 192.51,146.96 C194.384381,146.962629 196.254906,147.129939 198.1,147.46 L275.1,161.06 C283.440782,162.527419 290.854925,167.253267 295.706472,174.194769 C300.558019,181.136271 302.448222,189.722905 300.96,198.06 L301,198.07 Z" id="Shape"></path>
            <path d="M306.4,176.83 C301.80912,168.841985 294.22195,163.014837 285.32,160.64 L203.19,138.64 C194.292996,136.242659 184.80781,137.4824 176.825832,142.085872 C168.843854,146.689344 163.020586,154.278498 160.64,163.18 L138.64,245.31 C136.242659,254.207004 137.4824,263.69219 142.085872,271.674168 C146.689344,279.656146 154.278498,285.479414 163.18,287.86 L245.31,309.86 C254.208462,312.259781 263.696118,311.019902 271.679054,306.414001 C279.661989,301.808101 285.483937,294.214825 287.86,285.31 L309.86,203.19 C312.263169,194.293179 311.017789,184.805253 306.4,176.83 L306.4,176.83 Z M309.81,203.17 L287.81,285.3 C285.429188,294.184778 279.61528,301.7593 271.648088,306.35619 C263.680896,310.953079 254.213516,312.195515 245.33,309.81 L163.2,287.81 C154.315977,285.431427 146.741537,279.619481 142.14449,271.653891 C137.547442,263.688301 136.304735,254.222228 138.69,245.34 L160.69,163.21 C163.0661,154.322273 168.87916,146.744326 176.847764,142.146621 C184.816369,137.548917 194.286289,136.30893 203.17,138.7 L285.3,160.7 C294.184778,163.080812 301.7593,168.89472 306.35619,176.861912 C310.953079,184.829104 312.195515,194.296484 309.81,203.18 L309.81,203.17 Z" id="Shape"></path>
            <path d="M317.7,180.69 C315.64395,176.280879 312.75417,172.311251 309.19,169 C305.499313,165.555296 301.148258,162.894995 296.4,161.18 L209.55,129.54 C200.143057,126.107913 189.757621,126.556037 180.681275,130.785663 C171.604929,135.015289 164.58221,142.679459 161.16,152.09 L129.52,238.93 C126.084808,248.338176 126.531333,258.726153 130.76118,267.804848 C134.991027,276.883543 142.657059,283.907886 152.07,287.33 L238.92,319 C243.052848,320.51239 247.419119,321.287487 251.82,321.29 C252.46,321.29 253.1,321.29 253.74,321.24 C268.897322,320.480229 282.1241,310.712823 287.31,296.45 L319,209.55 C322.436077,200.146285 321.986282,189.761406 317.75,180.69 L317.7,180.69 Z M318.89,209.53 L287.26,296.38 C283.842572,305.778889 276.827925,313.433069 267.762121,317.655523 C258.696318,321.877978 248.323541,322.322099 238.93,318.89 L152.09,287.25 C142.691836,283.834695 135.037775,276.821946 130.815196,267.757752 C126.592617,258.693558 126.148229,248.322163 129.58,238.93 L161.21,152.09 C166.407544,137.859101 179.609448,128.114182 194.74,127.34 C195.37,127.34 196.01,127.34 196.65,127.34 C201.044862,127.336925 205.405537,128.112231 209.53,129.63 L296.38,161.26 C305.778164,164.675305 313.432225,171.688054 317.654804,180.752248 C321.877383,189.816442 322.321771,200.187837 318.89,209.58 L318.89,209.53 Z" id="Shape"></path>
            <path d="M321.46,172.45 C317.783947,168.376175 313.325371,165.084107 308.35,162.77 L217.35,120.29 C207.490368,115.680531 196.202544,115.180531 185.973969,118.900183 C175.745395,122.619836 167.415535,130.253866 162.82,140.12 L120.33,231.12 C115.720531,240.979632 115.220531,252.267456 118.940183,262.496031 C122.659836,272.724605 130.293866,281.054465 140.16,285.65 L231.16,328.14 C236.12672,330.478721 241.514157,331.791569 247,332 C247.5,332 248,332 248.51,332 C264.455611,332.005171 278.957841,322.764777 285.69,308.31 L328.18,217.31 C335.149865,202.363699 332.50354,184.697904 321.46,172.45 L321.46,172.45 Z M331.95,201.45 C331.754209,206.923456 330.454896,212.300977 328.13,217.26 L285.64,308.26 C276.062633,328.759229 251.689678,337.62497 231.18,328.07 L140.18,285.58 C130.322327,280.994952 122.693821,272.676417 118.977398,262.459539 C115.260976,252.242661 115.762022,240.966976 120.37,231.12 L162.86,140.12 C169.603512,125.701735 184.082673,116.489496 200,116.49 L201.51,116.49 C206.987166,116.690325 212.367712,117.992947 217.33,120.32 L308.33,162.81 C323.274251,169.766662 332.599056,184.996782 332,201.47 L331.95,201.45 Z" id="Shape"></path>
            <path d="M334.41,177.37 C330.820539,172.612715 326.306904,168.629696 321.14,165.66 L226.58,111 C216.343341,105.068923 204.165587,103.460337 192.74,106.53 C181.305747,109.567118 171.557427,117.04395 165.66,127.3 L111,221.89 C105.077002,232.128621 103.466836,244.301759 106.524147,255.728224 C109.581458,267.154689 117.055471,276.897228 127.3,282.81 L221.86,337.44 C228.630328,341.371987 236.320705,343.442075 244.15,343.44 C253.8627,343.443657 263.31244,340.284384 271.07,334.44 C275.829818,330.849246 279.813201,326.331797 282.78,321.16 L337.41,226.61 C346.385654,211.093242 345.204083,191.711531 334.41,177.4 L334.41,177.37 Z M343,209.79 C342.272217,215.700469 340.353563,221.402002 337.36,226.55 L282.73,321.11 C276.8274,331.343648 267.097721,338.810169 255.685337,341.863976 C244.272953,344.917783 232.114629,343.30821 221.89,337.39 L127.33,282.76 C117.091598,276.859267 109.621358,267.127732 106.567196,255.712144 C103.513034,244.296557 105.1259,232.1349 111.05,221.91 L165.67,127.36 C173.650443,113.595029 188.348954,105.112628 204.26,105.09 C206.09847,105.093657 207.935078,105.207193 209.76,105.43 C215.670022,106.166002 221.370592,108.087734 226.52,111.08 L321.08,165.7 C336.572235,174.666365 345.202942,192.026214 343,209.79 Z" id="Shape"></path>
            <path d="M348,183.93 C344.562577,178.418877 340.049327,173.657347 334.73,169.93 L237.52,101.83 C226.990569,94.4388953 213.952266,91.5427926 201.283914,93.7811432 C188.615562,96.0194939 177.359128,103.208195 170,113.76 L101.88,211 C94.4870681,221.522592 91.5847973,234.554343 93.8135813,247.219765 C96.0423652,259.885186 103.219021,271.143309 113.76,278.51 L211,346.59 C221.522592,353.982932 234.554343,356.885203 247.219765,354.656419 C259.885186,352.427635 271.143309,345.250979 278.51,334.71 L346.62,237.5 C357.782926,221.536403 358.326199,200.447172 348,183.93 Z M354.26,219.85 C352.911127,226.181822 350.295336,232.175351 346.57,237.47 L278.46,334.68 C271.092444,345.205116 259.843244,352.369916 247.190098,354.596315 C234.536952,356.822713 221.517735,353.92809 211,346.55 L113.79,278.44 C103.264013,271.077845 96.0978819,259.831942 93.871256,247.181255 C91.6446302,234.530569 94.5403125,221.513703 101.92,211 L170,113.79 C177.3574,103.261862 188.607401,96.1001529 201.26,93.89 C204.050073,93.4002394 206.877269,93.1526506 209.71,93.15 C219.635947,93.1477225 229.320456,96.2105837 237.44,101.92 L334.68,170 C350.613304,181.171689 358.316567,200.792167 354.24,219.82 L354.26,219.85 Z" id="Shape"></path>
            <path d="M362,192.32 C358.803343,186.064288 354.382553,180.514496 349,176 L250.19,93 C227.916241,74.3000016 194.700537,77.1966939 176,99.47 L93,198.28 C84.0074259,208.9785 79.636534,222.812913 80.850089,236.735972 C82.0636441,250.659031 88.7620979,263.528624 99.47,272.51 L198.28,355.51 C207.748317,363.471068 219.71957,367.840346 232.09,367.85 C233.64,367.85 235.18,367.78 236.74,367.64 C250.669079,366.43541 263.542976,359.726731 272.51,349 L355.51,250.19 C369.097091,233.95309 371.652926,211.16323 362,192.32 Z M365.39,231.8 C363.323573,238.526483 359.922511,244.767432 355.39,250.15 L272.39,348.96 C263.421391,359.661342 250.564659,366.356028 236.654731,367.56787 C222.744803,368.779713 208.924062,364.409187 198.24,355.42 L99.43,272.42 C88.7502402,263.446929 82.0728219,250.598552 80.8669383,236.701822 C79.6610547,222.805092 84.0255033,208.998561 93,198.32 L176,99.51 C184.968645,88.8089532 197.829213,82.1195869 211.74,80.92 C213.29,80.78 214.84,80.72 216.38,80.72 C228.731135,80.7111181 240.689506,85.0596166 250.15,93 L349,176 C365.192173,189.608289 371.677434,211.580214 365.47,231.8 L365.39,231.8 Z" id="Shape"></path>
            <path d="M363.9,183.78 L264.77,84.59 C254.04224,73.8341188 239.471235,67.7955544 224.28,67.81 L224.28,67.81 C209.092696,67.7807374 194.521695,73.8135927 183.8,84.57 L84.59,183.7 C73.835076,194.434015 67.7912617,209.005018 67.7912617,224.2 C67.7912617,239.394982 73.835076,253.965985 84.59,264.7 L183.72,363.9 C194.44776,374.655881 209.018765,380.694446 224.21,380.68 L224.21,380.68 C239.394235,380.693773 253.959526,374.663282 264.69,363.92 L363.88,264.79 C374.630011,254.053375 380.670431,239.483349 380.670431,224.29 C380.670431,209.096651 374.630011,194.526625 363.88,183.79 L363.9,183.78 Z M376.41,245.78 C373.533249,252.866896 369.258197,259.301581 363.84,264.7 L264.65,363.83 C253.934796,374.569228 239.380565,380.593902 224.21,380.57 L224.21,380.57 C209.033089,380.591268 194.474362,374.559024 183.76,363.81 L84.63,264.61 C73.8909683,253.887848 67.8564222,239.335354 67.8564222,224.16 C67.8564222,208.984646 73.8909683,194.432152 84.63,183.71 L183.82,84.58 C194.539199,73.845532 209.089967,67.8186929 224.26,67.83 L224.26,67.83 C239.436813,67.8191257 253.992889,73.8538696 264.71,84.6 L363.84,183.79 C380.083089,200.067253 385.024119,224.477118 376.39,245.79 L376.41,245.78 Z" id="Shape"></path>
            <path d="M379.3,193.67 L281.35,76.87 C270.754244,64.2060358 255.555872,56.2773876 239.107181,54.8328744 C222.658491,53.3883612 206.310832,58.5466576 193.67,69.17 L76.87,167.17 C64.2060358,177.765756 56.2773876,192.964128 54.8328744,209.412819 C53.3883612,225.861509 58.5466576,242.209168 69.17,254.85 L167.17,371.65 C177.76198,384.316727 192.969032,392.235193 209.42,393.65 C211.26,393.81 213.1,393.89 214.94,393.89 C229.530203,393.872239 243.645975,388.705428 254.8,379.3 L371.6,281.35 C384.263964,270.754244 392.192612,255.555872 393.637126,239.107181 C395.081639,222.658491 389.923342,206.310832 379.3,193.67 L379.3,193.67 Z M393.55,239.1 C392.124861,255.536709 384.20734,270.727554 371.55,281.31 L254.77,379.25 C242.138699,389.862842 225.805006,395.016085 209.370252,393.573518 C192.935497,392.130952 177.749305,384.211039 167.16,371.56 L69.22,254.77 C58.6071583,242.138699 53.4539151,225.805006 54.8964817,209.370252 C56.3390484,192.935497 64.2589611,177.749305 76.91,167.16 L193.7,69.21 C204.873233,59.8302307 218.991613,54.6827573 233.58,54.67 C235.42,54.67 237.26,54.75 239.1,54.92 C255.536709,56.3451387 270.727554,64.2626605 281.31,76.92 L379.26,193.72 C389.868767,206.3522 395.010837,222.688799 393.55,239.12 L393.55,239.1 Z" id="Shape"></path>
            <path d="M395,205.83 L300,70.08 C289.724977,55.3661552 274.020107,45.3427264 256.34758,42.2194106 C238.675053,39.0960948 220.485908,43.1293384 205.79,53.43 L70.04,148.43 C55.3211689,158.701418 45.2944804,174.40757 42.1726315,192.082413 C39.0507826,209.757256 43.0903935,227.947893 53.4,242.64 L148.4,378.39 C158.668192,393.110764 174.381501,403.130428 192.06,406.23 C195.970284,406.905399 199.931829,407.239989 203.9,407.23 C217.762426,407.225582 231.287753,402.955712 242.64,395 L378.39,300 C393.092632,289.724498 403.105399,274.023891 406.221173,256.359088 C409.336946,238.694284 405.299927,220.515532 395,205.83 Z M406.14,256.37 C403.055119,274.030711 393.057166,289.733039 378.36,300 L242.61,395 C227.925067,405.291067 209.750873,409.320916 192.092373,406.20151 C174.433874,403.082105 158.740312,393.069455 148.47,378.37 L53.47,242.62 C43.1789334,227.935067 39.1490842,209.760873 42.2684898,192.102373 C45.3878955,174.443874 55.4005446,158.750312 70.1,148.48 L205.85,53.48 C220.535661,43.1857652 238.712195,39.1540666 256.373129,42.273571 C274.034064,45.3930754 289.729554,55.4076923 300,70.11 L395,205.86 C405.298018,220.538811 409.321499,238.716455 406.18,256.37 L406.14,256.37 Z" id="Shape"></path>
            <path d="M410.92,220.48 L320.92,64.48 C311.183393,47.5774273 295.124767,35.2406519 276.283866,30.1890246 C257.442965,25.1373972 237.366553,27.7856362 220.48,37.55 L64.48,127.55 C47.5726754,137.284739 35.2321816,153.34522 30.1801984,172.189323 C25.1282152,191.033427 27.7797463,211.113173 37.55,228 L127.55,384 C140.702655,406.752256 164.979649,420.775068 191.26,420.8 C194.285246,420.797502 197.307524,420.610488 200.31,420.24 C210.06817,419.032879 219.482585,415.869799 227.99,410.94 L383.99,320.94 C400.89427,311.205068 413.233168,295.147182 418.28671,276.306137 C423.340252,257.465092 420.693535,237.387766 410.93,220.5 L410.92,220.48 Z M418.2,276.27 C413.187871,295.094725 400.879802,311.145599 384,320.87 L228,410.87 C211.12933,420.648328 191.060781,423.310697 172.224089,418.269443 C153.387397,413.228189 137.331349,400.897812 127.6,384 L37.6,228 C27.8258146,211.12326 25.1710549,191.050143 30.2218836,172.212728 C35.2727122,153.375314 47.6137014,137.322969 64.52,127.6 L220.52,37.6 C229.020105,32.6699752 238.428046,29.5067847 248.18,28.3 C257.588152,27.1544093 267.128939,27.8334689 276.28,30.3 C295.113355,35.3241174 311.165619,47.6512478 320.88,64.55 L410.88,220.55 C420.639053,237.423081 423.276709,257.48798 418.21,276.31 L418.2,276.27 Z" id="Shape"></path>
            <path d="M426.74,237.86 L344.06,60.42 C339.565475,50.7265605 333.16097,42.0398351 325.23,34.88 C309.782123,20.9316528 289.510016,13.5466088 268.71,14.29 C258.031049,14.6706941 247.53855,17.2011378 237.86,21.73 L60.42,104.41 C50.7245898,108.901198 42.0372388,115.306163 34.88,123.24 C20.9316528,138.687877 13.5466088,158.959984 14.29,179.76 C14.6706941,190.438951 17.2011378,200.93145 21.73,210.61 L104.41,388.05 C108.904525,397.74344 115.30903,406.430165 123.24,413.59 C127.071698,417.047989 131.227552,420.128881 135.65,422.79 C140.049703,425.419042 144.68676,427.628759 149.5,429.39 C158.285844,432.597354 167.567025,434.235608 176.92,434.23 C177.92,434.23 178.81,434.23 179.76,434.18 C190.438951,433.799306 200.93145,431.268862 210.61,426.74 L388.05,344.06 C407.265216,335.123288 422.137942,318.912233 429.39,299 C431.139985,294.186291 432.4291,289.21734 433.24,284.16 C435.745117,268.433655 433.481114,252.317436 426.74,237.89 L426.74,237.86 Z M433.18,284.12 C431.558986,294.251549 428.015336,303.979613 422.74,312.78 C414.547668,326.430738 402.445103,337.307021 388,344 L210.59,426.68 C200.918695,431.210744 190.433014,433.744585 179.76,434.13 C158.973852,434.873034 138.715496,427.49136 123.28,413.55 C115.350115,406.387587 108.948764,397.697124 104.46,388 L21.78,210.59 C12.8204787,191.392753 11.8705653,169.418809 19.14,149.52 C20.8936653,144.708485 23.1002346,140.074355 25.73,135.68 C33.9213457,122.035823 46.0153612,111.160963 60.45,104.46 L237.88,21.78 C247.553485,17.2568565 258.038278,14.7266308 268.71,14.34 C269.71,14.34 270.6,14.29 271.55,14.29 C291.368084,14.2852741 310.482505,21.6367005 325.19,34.92 C333.116364,42.0754686 339.514495,50.7593744 344,60.45 L426.67,237.88 C431.200744,247.551305 433.734585,258.036986 434.12,268.71 C434.302023,273.864931 433.987237,279.025413 433.18,284.12 Z" id="Shape"></path>
            <path d="M442.22,258.17 L369.5,58.17 C363.617496,41.9099518 352.993043,27.7881375 339,17.63 C315.637213,0.602277323 285.326064,-3.66520852 258.17,6.25 L58.21,79 C36.5417299,86.855217 18.8855692,103.003053 9.1317463,123.885613 C-0.622076613,144.768172 -1.67319026,168.671891 6.21,190.33 L79,390.26 C82.9576855,401.187634 89.0798815,411.204227 97,419.71 C108.489019,432.033923 123.2974,440.771701 139.64,444.87 C145.083035,446.233894 150.645956,447.064481 156.25,447.35 C157.743333,447.43 159.233333,447.47 160.72,447.47 C170.831916,447.467305 180.864622,445.686872 190.36,442.21 L390.36,369.5 C401.287634,365.542314 411.304227,359.420118 419.81,351.5 C423.876069,347.693828 427.56949,343.508173 430.84,339 C437.389957,329.966111 442.142809,319.757662 444.84,308.93 C449.043187,292.138214 448.120187,274.472341 442.19,258.21 L442.22,258.17 Z M447.3,292.28 C445.539735,327.141101 423.054663,357.550723 390.24,369.45 L190.24,442.16 C179.337895,446.148188 167.743354,447.896382 156.15,447.3 C121.296325,445.531892 90.8964689,423.048214 79,390.24 L6.29,190.24 C2.31447222,179.348888 0.573184146,167.768642 1.17,156.19 C2.3527983,133.622749 12.2602667,112.398606 28.8,97 C37.2990528,89.0810668 47.3088777,82.9588497 58.23,79 L258.23,6.29 C267.708932,2.83267237 277.72024,1.06258633 287.81,1.06 C289.3,1.06 290.81,1.06 292.28,1.17 C314.854291,2.3476961 336.0865,12.2555821 351.49,28.8 C359.408933,37.2990528 365.53115,47.3088777 369.49,58.23 L442.2,258.23 C446.169263,269.12237 447.903759,280.702684 447.3,292.28 Z" id="Shape"></path>
        </g>
    </g>
</svg>