<?xml version="1.0" encoding="UTF-8"?>
<svg width="1264px" height="1264px" viewBox="0 0 1264 1264" version="1.1" xmlns="http://www.w3.org/2000/svg" xmlns:xlink="http://www.w3.org/1999/xlink">
    <!-- Generator: Sketch 53.2 (72643) - https://sketchapp.com -->
    <title>background</title>
    <desc>Created with Sketch.</desc>
    <g id="Page-1" stroke="none" stroke-width="1" fill="none" fill-rule="evenodd">
        <g id="background" transform="translate(-69.000000, -69.000000)" stroke="#00A19A" stroke-width="0.1">
            <rect id="Rectangle" transform="translate(700.973773, 701.025557) rotate(-49.980000) translate(-700.973773, -701.025557) " x="697.298773" y="697.350557" width="7.35" height="7.35" rx="1.65"></rect>
            <rect id="Rectangle" transform="translate(700.977562, 701.021977) rotate(-44.980000) translate(-700.977562, -701.021977) " x="696.982562" y="697.026977" width="7.99" height="7.99" rx="1.79"></rect>
            <rect id="Rectangle" transform="translate(700.976436, 701.026641) rotate(-39.980000) translate(-700.976436, -701.026641) " x="696.636436" y="696.686641" width="8.68" height="8.68" rx="1.95"></rect>
            <rect id="Rectangle" transform="translate(700.972317, 701.026103) rotate(-34.980000) translate(-700.972317, -701.026103) " x="696.252317" y="696.306103" width="9.44" height="9.44" rx="2.12"></rect>
            <rect id="Rectangle" transform="translate(700.969936, 701.022069) rotate(-29.980000) translate(-700.969936, -701.022069) " x="695.839936" y="695.892069" width="10.26" height="10.26" rx="2.3"></rect>
            <rect id="Rectangle" transform="translate(700.961286, 701.022831) rotate(-24.980000) translate(-700.961286, -701.022831) " x="695.386286" y="695.447831" width="11.15" height="11.15" rx="2.51"></rect>
            <rect id="Rectangle" transform="translate(700.964935, 701.019779) rotate(-19.980000) translate(-700.964935, -701.019779) " x="694.904935" y="694.959779" width="12.12" height="12.12" rx="2.72"></rect>
            <rect id="Rectangle" transform="translate(700.952105, 701.013961) rotate(-14.980000) translate(-700.952105, -701.013961) " x="694.367105" y="694.428961" width="13.17" height="13.17" rx="2.96"></rect>
            <rect id="Rectangle" transform="translate(700.951991, 701.012156) rotate(-9.980000) translate(-700.951991, -701.012156) " x="693.791991" y="693.852156" width="14.32" height="14.32" rx="3.22"></rect>
            <rect id="Rectangle" transform="translate(700.955234, 701.013394) rotate(-4.980000) translate(-700.955234, -701.013394) " x="693.175234" y="693.233394" width="15.56" height="15.56" rx="3.5"></rect>
            <rect id="Rectangle" x="692.52" y="692.52" width="16.91" height="16.91" rx="3.8"></rect>
            <rect id="Rectangle" transform="translate(700.995470, 701.013673) rotate(-84.980000) translate(-700.995470, -701.013673) " x="691.80547" y="691.823673" width="18.38" height="18.38" rx="4.13"></rect>
            <rect id="Rectangle" transform="translate(700.998291, 701.017069) rotate(-79.980000) translate(-700.998291, -701.017069) " x="691.008291" y="691.027069" width="19.98" height="19.98" rx="4.49"></rect>
            <rect id="Rectangle" transform="translate(700.987956, 701.019932) rotate(-74.980000) translate(-700.987956, -701.019932) " x="690.127956" y="690.159932" width="21.72" height="21.72" rx="4.88"></rect>
            <rect id="Rectangle" transform="translate(700.992222, 701.018706) rotate(-69.980000) translate(-700.992222, -701.018706) " x="689.187222" y="689.213706" width="23.61" height="23.61" rx="5.31"></rect>
            <rect id="Rectangle" transform="translate(700.988045, 701.025909) rotate(-64.980000) translate(-700.988045, -701.025909) " x="688.158045" y="688.195909" width="25.66" height="25.66" rx="5.77"></rect>
            <rect id="Rectangle" transform="translate(700.984597, 701.022456) rotate(-59.980000) translate(-700.984597, -701.022456) " x="687.039597" y="687.077456" width="27.89" height="27.89" rx="6.27"></rect>
            <rect id="Rectangle" transform="translate(700.990666, 701.018376) rotate(-54.980000) translate(-700.990666, -701.018376) " x="685.830666" y="685.858376" width="30.32" height="30.32" rx="6.81"></rect>
            <rect id="Rectangle" transform="translate(700.980817, 701.024943) rotate(-49.980000) translate(-700.980817, -701.024943) " x="684.500817" y="684.544943" width="32.96" height="32.96" rx="7.41"></rect>
            <rect id="Rectangle" transform="translate(700.970491, 701.021974) rotate(-44.980000) translate(-700.970491, -701.021974) " x="683.060491" y="683.111974" width="35.82" height="35.82" rx="8.05"></rect>
            <rect id="Rectangle" transform="translate(700.976436, 701.026641) rotate(-39.980000) translate(-700.976436, -701.026641) " x="681.506436" y="681.556641" width="38.94" height="38.94" rx="8.75"></rect>
            <rect id="Rectangle" transform="translate(700.958391, 701.023642) rotate(-34.980000) translate(-700.958391, -701.023642) " x="679.798391" y="679.863642" width="42.32" height="42.32" rx="9.51"></rect>
            <rect id="Rectangle" transform="translate(700.956277, 701.018404) rotate(-29.980000) translate(-700.956277, -701.018404) " x="677.956277" y="678.018404" width="46" height="46" rx="10.34"></rect>
            <rect id="Rectangle" transform="translate(700.954642, 701.020411) rotate(-24.980000) translate(-700.954642, -701.020411) " x="675.954642" y="676.020411" width="50" height="50" rx="11.24"></rect>
            <rect id="Rectangle" transform="translate(700.958528, 701.016788) rotate(-19.980000) translate(-700.958528, -701.016788) " x="673.783528" y="673.841788" width="54.35" height="54.35" rx="12.21"></rect>
            <rect id="Rectangle" transform="translate(700.958227, 701.017498) rotate(-14.980000) translate(-700.958227, -701.017498) " x="671.418227" y="671.477498" width="59.08" height="59.08" rx="13.28"></rect>
            <rect id="Rectangle" transform="translate(700.951991, 701.012156) rotate(-9.980000) translate(-700.951991, -701.012156) " x="668.841991" y="668.902156" width="64.22" height="64.22" rx="14.43"></rect>
            <rect id="Rectangle" transform="translate(700.955234, 701.013394) rotate(-4.980000) translate(-700.955234, -701.013394) " x="666.055234" y="666.113394" width="69.8" height="69.8" rx="15.68"></rect>
            <rect id="Rectangle" x="663.04" y="663.04" width="75.87" height="75.87" rx="17.05"></rect>
            <rect id="Rectangle" transform="translate(701.000888, 701.009129) rotate(-84.980000) translate(-701.000888, -701.009129) " x="659.765888" y="659.774129" width="82.47" height="82.47" rx="18.53"></rect>
            <rect id="Rectangle" transform="translate(701.009878, 701.008961) rotate(-79.980000) translate(-701.009878, -701.008961) " x="656.189878" y="656.188961" width="89.64" height="89.64" rx="20.14"></rect>
            <rect id="Rectangle" transform="translate(700.994081, 701.016399) rotate(-74.980000) translate(-700.994081, -701.016399) " x="652.279081" y="652.301399" width="97.43" height="97.43" rx="21.89"></rect>
            <rect id="Rectangle" transform="translate(700.985812, 701.021692) rotate(-69.980000) translate(-700.985812, -701.021692) " x="648.035812" y="648.071692" width="105.9" height="105.9" rx="23.8"></rect>
            <rect id="Rectangle" transform="translate(700.994691, 701.023493) rotate(-64.980000) translate(-700.994691, -701.023493) " x="643.439691" y="643.468493" width="115.11" height="115.11" rx="25.87"></rect>
            <rect id="Rectangle" transform="translate(700.977767, 701.024284) rotate(-59.980000) translate(-700.977767, -701.024284) " x="638.417767" y="638.464284" width="125.12" height="125.12" rx="28.12"></rect>
            <rect id="Rectangle" transform="translate(700.976738, 701.020827) rotate(-54.980000) translate(-700.976738, -701.020827) " x="632.976738" y="633.020827" width="136" height="136" rx="30.56"></rect>
            <rect id="Rectangle" transform="translate(700.973773, 701.025557) rotate(-49.980000) translate(-700.973773, -701.025557) " x="627.058773" y="627.110557" width="147.83" height="147.83" rx="33.22"></rect>
            <rect id="Rectangle" transform="translate(700.977562, 701.021977) rotate(-44.980000) translate(-700.977562, -701.021977) " x="620.632562" y="620.676977" width="160.69" height="160.69" rx="36.11"></rect>
            <rect id="Rectangle" transform="translate(700.976436, 701.026641) rotate(-39.980000) translate(-700.976436, -701.026641) " x="613.646436" y="613.696641" width="174.66" height="174.66" rx="39.25"></rect>
            <rect id="Rectangle" transform="translate(700.965354, 701.024873) rotate(-34.980000) translate(-700.965354, -701.024873) " x="606.040354" y="606.099873" width="189.85" height="189.85" rx="42.66"></rect>
            <rect id="Rectangle" transform="translate(700.963106, 701.020237) rotate(-29.980000) translate(-700.963106, -701.020237) " x="597.788106" y="597.845237" width="206.35" height="206.35" rx="46.37"></rect>
            <rect id="Rectangle" transform="translate(700.967930, 701.025252) rotate(-24.980000) translate(-700.967930, -701.025252) " x="588.81793" y="588.875252" width="224.3" height="224.3" rx="50.4"></rect>
            <rect id="Rectangle" transform="translate(700.952120, 701.013797) rotate(-19.980000) translate(-700.952120, -701.013797) " x="579.05212" y="579.113797" width="243.8" height="243.8" rx="54.79"></rect>
            <rect id="Rectangle" transform="translate(700.945982, 701.010423) rotate(-14.980000) translate(-700.945982, -701.010423) " x="568.445982" y="568.510423" width="265" height="265" rx="59.55"></rect>
            <rect id="Rectangle" transform="translate(700.946200, 701.008098) rotate(-9.980000) translate(-700.946200, -701.008098) " x="556.9212" y="556.983098" width="288.05" height="288.05" rx="64.73"></rect>
            <rect id="Rectangle" transform="translate(700.949818, 701.008847) rotate(-4.980000) translate(-700.949818, -701.008847) " x="544.404818" y="544.463847" width="313.09" height="313.09" rx="70.36"></rect>
            <rect id="Rectangle" x="530.82" y="530.82" width="340.32" height="340.32" rx="76.47"></rect>
            <rect id="Rectangle" transform="translate(701.000888, 701.009129) rotate(-84.980000) translate(-701.000888, -701.009129) " x="516.045888" y="516.054129" width="369.91" height="369.91" rx="83.12"></rect>
            <rect id="Rectangle" transform="translate(701.009878, 701.008961) rotate(-79.980000) translate(-701.009878, -701.008961) " x="499.969878" y="499.968961" width="402.08" height="402.08" rx="90.35"></rect>
            <rect id="Rectangle" transform="translate(700.987956, 701.019932) rotate(-74.980000) translate(-700.987956, -701.019932) " x="482.467956" y="482.499932" width="437.04" height="437.04" rx="98.21"></rect>
            <rect id="Rectangle" transform="translate(700.992222, 701.018706) rotate(-69.980000) translate(-700.992222, -701.018706) " x="463.467222" y="463.493706" width="475.05" height="475.05" rx="106.75"></rect>
            <rect id="Rectangle" transform="translate(700.994691, 701.023493) rotate(-64.980000) translate(-700.994691, -701.023493) " x="442.819691" y="442.848493" width="516.35" height="516.35" rx="116.03"></rect>
            <rect id="Rectangle" transform="translate(700.984597, 701.022456) rotate(-59.980000) translate(-700.984597, -701.022456) " x="420.359597" y="420.397456" width="561.25" height="561.25" rx="126.12"></rect>
            <rect id="Rectangle" transform="translate(700.990666, 701.018376) rotate(-54.980000) translate(-700.990666, -701.018376) " x="395.960666" y="395.988376" width="610.06" height="610.06" rx="137.09"></rect>
            <rect id="Rectangle" transform="translate(700.973773, 701.025557) rotate(-49.980000) translate(-700.973773, -701.025557) " x="369.418773" y="369.470557" width="663.11" height="663.11" rx="149.01"></rect>
            <rect id="Rectangle" transform="translate(700.977562, 701.021977) rotate(-44.980000) translate(-700.977562, -701.021977) " x="340.592562" y="340.636977" width="720.77" height="720.77" rx="161.97"></rect>
            <rect id="Rectangle" transform="translate(700.962348, 701.025403) rotate(-39.980000) translate(-700.962348, -701.025403) " x="309.242348" y="309.305403" width="783.44" height="783.44" rx="176.05"></rect>
            <rect id="Rectangle" transform="translate(700.965354, 701.024873) rotate(-34.980000) translate(-700.965354, -701.024873) " x="275.180354" y="275.239873" width="851.57" height="851.57" rx="191.36"></rect>
            <rect id="Rectangle" transform="translate(700.969936, 701.022069) rotate(-29.980000) translate(-700.969936, -701.022069) " x="238.159936" y="238.212069" width="925.62" height="925.62" rx="208"></rect>
            <rect id="Rectangle" transform="translate(700.961286, 701.022831) rotate(-24.980000) translate(-700.961286, -701.022831) " x="197.906286" y="197.967831" width="1006.11" height="1006.11" rx="226.09"></rect>
            <rect id="Rectangle" transform="translate(700.964935, 701.019779) rotate(-19.980000) translate(-700.964935, -701.019779) " x="154.164935" y="154.219779" width="1093.6" height="1093.6" rx="245.75"></rect>
        </g>
    </g>
</svg>